<?xml version="1.0" encoding="UTF-8" standalone="no"?>
<svg xmlns="http://www.w3.org/2000/svg" width="300" height="300" viewBox="0 0 300 300">
  <!-- Background glow -->
  <defs>
    <radialGradient id="glow" cx="50%" cy="50%" r="50%" fx="50%" fy="50%">
      <stop offset="0%" style="stop-color:#FFC371;stop-opacity:0.3" />
      <stop offset="100%" style="stop-color:#FFC371;stop-opacity:0" />
    </radialGradient>
    
    <linearGradient id="rakhiGradient" x1="0%" y1="0%" x2="100%" y2="100%">
      <stop offset="0%" style="stop-color:#FF5E62;stop-opacity:1" />
      <stop offset="100%" style="stop-color:#FF9966;stop-opacity:1" />
    </linearGradient>
    
    <filter id="shadow" x="-20%" y="-20%" width="140%" height="140%">
      <feGaussianBlur in="SourceAlpha" stdDeviation="5" />
      <feOffset dx="0" dy="5" result="offsetblur" />
      <feComponentTransfer>
        <feFuncA type="linear" slope="0.5" />
      </feComponentTransfer>
      <feMerge>
        <feMergeNode />
        <feMergeNode in="SourceGraphic" />
      </feMerge>
    </filter>
  </defs>
  
  <!-- Background glow -->
  <circle cx="150" cy="150" r="120" fill="url(#glow)"/>
  
  <!-- Digital elements - circuit-like patterns -->
  <g transform="translate(150, 150)" opacity="0.2">
    <circle cx="0" cy="0" r="90" fill="none" stroke="#333" stroke-width="1" />
    <circle cx="0" cy="0" r="70" fill="none" stroke="#333" stroke-width="1" />
    
    <!-- Circuit lines -->
    <path d="M-90,0 L-70,0 M0,-90 L0,-70 M90,0 L70,0 M0,90 L0,70" stroke="#333" stroke-width="1" />
    <path d="M-60,-60 L-45,-45 M60,-60 L45,-45 M-60,60 L-45,45 M60,60 L45,45" stroke="#333" stroke-width="1" />
    
    <!-- Small nodes -->
    <circle cx="-70" cy="0" r="3" fill="#333" />
    <circle cx="70" cy="0" r="3" fill="#333" />
    <circle cx="0" cy="-70" r="3" fill="#333" />
    <circle cx="0" cy="70" r="3" fill="#333" />
    <circle cx="-45" cy="-45" r="3" fill="#333" />
    <circle cx="45" cy="-45" r="3" fill="#333" />
    <circle cx="-45" cy="45" r="3" fill="#333" />
    <circle cx="45" cy="45" r="3" fill="#333" />
  </g>
  
  <!-- Main Rakhi -->
  <g transform="translate(150, 150)" filter="url(#shadow)">
    <!-- Main Rakhi circle -->
    <circle cx="0" cy="0" r="60" fill="url(#rakhiGradient)" stroke="#FFD700" stroke-width="3"/>
    
    <!-- Decorative patterns -->
    <circle cx="0" cy="0" r="45" fill="none" stroke="#FFD700" stroke-width="2" stroke-dasharray="5,3"/>
    <circle cx="0" cy="0" r="30" fill="#FFC371" stroke="#FF5E62" stroke-width="1.5"/>
    
    <!-- Center design - digital style -->
    <circle cx="0" cy="0" r="20" fill="#FF5E62"/>
    <circle cx="0" cy="0" r="15" fill="#FFD700"/>
    
    <!-- Digital center - binary-like pattern -->
    <text x="-10" y="5" font-family="monospace" font-size="8" fill="#FF5E62">01</text>
    <text x="0" y="5" font-family="monospace" font-size="8" fill="#FF5E62">10</text>
    
    <!-- Decorative elements around - modern style -->
    <g id="decorations">
      <!-- Decorative elements at cardinal points -->
      <rect x="-5" y="-65" width="10" height="15" rx="2" fill="#FF5E62" stroke="#FFD700" stroke-width="1"/>
      <rect x="-5" y="50" width="10" height="15" rx="2" fill="#FF5E62" stroke="#FFD700" stroke-width="1"/>
      <rect x="-65" y="-5" width="15" height="10" rx="2" fill="#FF5E62" stroke="#FFD700" stroke-width="1"/>
      <rect x="50" y="-5" width="15" height="10" rx="2" fill="#FF5E62" stroke="#FFD700" stroke-width="1"/>
    </g>
    
    <!-- Small gems - digital style -->
    <rect x="-35" y="-35" width="10" height="10" rx="2" fill="#FFD700" stroke="#FF5E62" stroke-width="1"/>
    <rect x="25" y="-35" width="10" height="10" rx="2" fill="#FFD700" stroke="#FF5E62" stroke-width="1"/>
    <rect x="-35" y="25" width="10" height="10" rx="2" fill="#FFD700" stroke="#FF5E62" stroke-width="1"/>
    <rect x="25" y="25" width="10" height="10" rx="2" fill="#FFD700" stroke="#FF5E62" stroke-width="1"/>
    
    <!-- Rakhi string - digital style -->
    <path d="M0,60 L0,80 M-10,80 L10,80 M-15,90 L15,90 M-20,100 L20,100" fill="none" stroke="#FF5E62" stroke-width="2" stroke-linecap="round"/>
    
    <!-- String decorations - digital style -->
    <rect x="-25" y="110" width="50" height="10" rx="5" fill="#FFD700" stroke="#FF5E62" stroke-width="1"/>
    <rect x="-20" y="125" width="40" height="8" rx="4" fill="#FFD700" stroke="#FF5E62" stroke-width="1"/>
  </g>
  
  <!-- Digital sparkles -->
  <g>
    <circle cx="100" cy="100" r="2" fill="#FFD700" opacity="0.8">
      <animate attributeName="opacity" values="0.8;0.2;0.8" dur="2s" repeatCount="indefinite" />
    </circle>
    <circle cx="200" cy="100" r="2" fill="#FFD700" opacity="0.2">
      <animate attributeName="opacity" values="0.2;0.8;0.2" dur="2.5s" repeatCount="indefinite" />
    </circle>
    <circle cx="100" cy="200" r="2" fill="#FFD700" opacity="0.5">
      <animate attributeName="opacity" values="0.5;0.1;0.5" dur="1.8s" repeatCount="indefinite" />
    </circle>
    <circle cx="200" cy="200" r="2" fill="#FFD700" opacity="0.3">
      <animate attributeName="opacity" values="0.3;0.9;0.3" dur="2.2s" repeatCount="indefinite" />
    </circle>
    <circle cx="150" cy="80" r="2" fill="#FFD700" opacity="0.6">
      <animate attributeName="opacity" values="0.6;0.1;0.6" dur="1.5s" repeatCount="indefinite" />
    </circle>
    <circle cx="150" cy="220" r="2" fill="#FFD700" opacity="0.4">
      <animate attributeName="opacity" values="0.4;0.9;0.4" dur="2.1s" repeatCount="indefinite" />
    </circle>
    <circle cx="80" cy="150" r="2" fill="#FFD700" opacity="0.7">
      <animate attributeName="opacity" values="0.7;0.2;0.7" dur="1.9s" repeatCount="indefinite" />
    </circle>
    <circle cx="220" cy="150" r="2" fill="#FFD700" opacity="0.3">
      <animate attributeName="opacity" values="0.3;0.8;0.3" dur="2.3s" repeatCount="indefinite" />
    </circle>
  </g>
</svg>