<?xml version="1.0" encoding="UTF-8" standalone="no"?>
<svg xmlns="http://www.w3.org/2000/svg" width="400" height="400" viewBox="0 0 400 400">
  <!-- Background glow -->
  <defs>
    <radialGradient id="glow" cx="50%" cy="50%" r="50%" fx="50%" fy="50%">
      <stop offset="0%" style="stop-color:#FFC371;stop-opacity:0.5" />
      <stop offset="100%" style="stop-color:#FFC371;stop-opacity:0" />
    </radialGradient>
  </defs>
  
  <!-- Background glow -->
  <circle cx="200" cy="200" r="150" fill="url(#glow)"/>
  
  <!-- Main Rakhi -->
  <g transform="translate(200, 200)">
    <!-- Outer decorative circle -->
    <circle cx="0" cy="0" r="100" fill="none" stroke="#FFD700" stroke-width="5" stroke-dasharray="10,5"/>
    
    <!-- Main Rakhi circle -->
    <circle cx="0" cy="0" r="80" fill="#FF9966" stroke="#FF5E62" stroke-width="4"/>
    
    <!-- Decorative patterns -->
    <circle cx="0" cy="0" r="65" fill="none" stroke="#FFD700" stroke-width="3" stroke-dasharray="8,4"/>
    <circle cx="0" cy="0" r="50" fill="#FFC371" stroke="#FF5E62" stroke-width="2"/>
    
    <!-- Center design -->
    <circle cx="0" cy="0" r="30" fill="#FF5E62"/>
    <circle cx="0" cy="0" r="20" fill="#FFD700"/>
    <circle cx="0" cy="0" r="10" fill="#FF9966"/>
    
    <!-- Decorative elements around -->
    <g id="decorations">
      <!-- Top decoration -->
      <path d="M0,-80 Q15,-100 0,-120 Q-15,-100 0,-80" fill="#FF5E62" stroke="#FFD700" stroke-width="2"/>
      <!-- Bottom decoration -->
      <path d="M0,80 Q15,100 0,120 Q-15,100 0,80" fill="#FF5E62" stroke="#FFD700" stroke-width="2"/>
      <!-- Left decoration -->
      <path d="M-80,0 Q-100,15 -120,0 Q-100,-15 -80,0" fill="#FF5E62" stroke="#FFD700" stroke-width="2"/>
      <!-- Right decoration -->
      <path d="M80,0 Q100,15 120,0 Q100,-15 80,0" fill="#FF5E62" stroke="#FFD700" stroke-width="2"/>
      
      <!-- Diagonal decorations -->
      <path d="M-60,-60 Q-70,-70 -80,-80 Q-70,-70 -60,-60" fill="#FF5E62" stroke="#FFD700" stroke-width="2"/>
      <path d="M60,-60 Q70,-70 80,-80 Q70,-70 60,-60" fill="#FF5E62" stroke="#FFD700" stroke-width="2"/>
      <path d="M-60,60 Q-70,70 -80,80 Q-70,70 -60,60" fill="#FF5E62" stroke="#FFD700" stroke-width="2"/>
      <path d="M60,60 Q70,70 80,80 Q70,70 60,60" fill="#FF5E62" stroke="#FFD700" stroke-width="2"/>
    </g>
    
    <!-- Small gems -->
    <circle cx="-40" cy="-40" r="8" fill="#FFD700" stroke="#FF5E62" stroke-width="1"/>
    <circle cx="40" cy="-40" r="8" fill="#FFD700" stroke="#FF5E62" stroke-width="1"/>
    <circle cx="-40" cy="40" r="8" fill="#FFD700" stroke="#FF5E62" stroke-width="1"/>
    <circle cx="40" cy="40" r="8" fill="#FFD700" stroke="#FF5E62" stroke-width="1"/>
    
    <!-- Rakhi string -->
    <path d="M0,100 Q50,150 100,170 M0,100 Q-50,150 -100,170" fill="none" stroke="#FF5E62" stroke-width="5" stroke-linecap="round"/>
    
    <!-- String decorations -->
    <circle cx="50" cy="150" r="6" fill="#FFD700" stroke="#FF5E62" stroke-width="1"/>
    <circle cx="-50" cy="150" r="6" fill="#FFD700" stroke="#FF5E62" stroke-width="1"/>
    <circle cx="75" cy="160" r="6" fill="#FFD700" stroke="#FF5E62" stroke-width="1"/>
    <circle cx="-75" cy="160" r="6" fill="#FFD700" stroke="#FF5E62" stroke-width="1"/>
  </g>
</svg>